<?xml version="1.0" encoding="UTF-8" standalone="no"?><!DOCTYPE svg PUBLIC "-//W3C//DTD SVG 1.1//EN" "http://www.w3.org/Graphics/SVG/1.1/DTD/svg11.dtd"><svg width="100%" height="100%" viewBox="0 0 512 512" version="1.1" xmlns="http://www.w3.org/2000/svg" xmlns:xlink="http://www.w3.org/1999/xlink" xml:space="preserve" xmlns:serif="http://www.serif.com/" style="fill-rule:evenodd;clip-rule:evenodd;stroke-linecap:round;stroke-linejoin:round;stroke-miterlimit:1.5;"><g id="eyes5"><path d="M215.33,225.175c-14.581,-1.389 -33.646,0 -46.08,0.731c-12.434,0.732 -24.137,5.852 -24.869,21.212c-0.731,15.36 12.435,19.748 27.063,19.748c14.629,0 35.84,-0.731 46.08,0c10.24,0.732 17.554,-8.045 17.554,-21.211c0,-13.166 -4.388,-19.017 -19.748,-20.48Z" style="stroke:#000;stroke-width:6.08px;"/><path d="M227.852,263.734c0.232,-1.263 0.354,-2.564 0.354,-3.894c-0,-11.808 -9.587,-21.394 -21.395,-21.394c-11.807,-0 -21.394,9.586 -21.394,21.394c0,2.406 0.398,4.72 1.132,6.879c-5.321,0.076 -10.534,0.147 -15.105,0.147c-14.628,0 -27.794,-4.388 -27.063,-19.748c0.732,-15.36 12.435,-20.48 24.869,-21.212c12.434,-0.731 31.499,-2.12 46.08,-0.731c15.36,1.463 19.748,7.314 19.748,20.48c0,8.066 -2.745,14.485 -7.226,18.079Z" style="fill:#fff;stroke:#000;stroke-width:1.42px;"/><path d="M343.357,225.941c-14.617,-0.93 -28.557,-0.566 -40.963,0.556c-12.405,1.122 -24.033,3.683 -24.281,19.058c-0.249,15.375 6.515,21.017 27.762,21.813c14.618,0.547 33.629,-1.058 43.887,-0.649c10.258,0.41 20.119,-9.43 19.049,-22.552c-1.191,-14.599 -10.056,-17.247 -25.454,-18.226Z" style="stroke:#000;stroke-width:6.08px;"/><path d="M362.556,261.539c0.153,-1.032 0.233,-2.088 0.233,-3.162c-0,-11.808 -9.587,-21.394 -21.395,-21.394c-11.807,-0 -21.394,9.586 -21.394,21.394c0,3.199 0.704,6.235 1.965,8.962c-5.527,0.151 -11.068,0.217 -16.09,0.029c-21.247,-0.796 -28.011,-6.438 -27.762,-21.813c0.248,-15.375 11.876,-17.936 24.281,-19.058c12.406,-1.122 26.346,-1.486 40.963,-0.556c15.398,0.979 24.263,3.627 25.454,18.226c0.582,7.134 -2.067,13.298 -6.255,17.372Z" style="fill:#fff;stroke:#000;stroke-width:1.42px;"/></g></svg>