<?xml version="1.0" encoding="UTF-8" standalone="no"?><!DOCTYPE svg PUBLIC "-//W3C//DTD SVG 1.1//EN" "http://www.w3.org/Graphics/SVG/1.1/DTD/svg11.dtd"><svg width="100%" height="100%" viewBox="0 0 512 512" version="1.1" xmlns="http://www.w3.org/2000/svg" xmlns:xlink="http://www.w3.org/1999/xlink" xml:space="preserve" xmlns:serif="http://www.serif.com/" style="fill-rule:evenodd;clip-rule:evenodd;stroke-linejoin:round;stroke-miterlimit:2;"><g id="eyes1"><path d="M135.823,246.672c8.986,-12.844 70.783,-45.935 93.771,-3.55c1.361,2.509 7.988,5.907 -7.631,17.576c-29.528,22.062 -74.213,-0.838 -85.881,-13.56" style="fill:#fff;"/><path d="M135.208,247.644c-0.025,0.004 -0.049,0.008 -0.074,0.013c-0.054,-0.565 -0.238,-1.113 -0.292,-1.678c-0.014,-0.145 4.412,-6.408 18.378,-14.101c26.543,-14.621 61.698,-19.104 77.78,9.816c1.033,1.858 2.102,2.454 2.765,4.529c0.779,2.439 1.206,7.346 -10.998,16.304c-29.382,21.569 -73.059,0.876 -87.155,-13.128c-0.134,-0.133 -0.084,-0.422 -0.288,-0.98c-0.027,-0.073 -0.082,-0.138 -0.088,-0.216c-0.015,-0.23 -0.024,-0.409 -0.028,-0.559Zm2.283,-1.156c0.142,0.048 0.339,0.101 0.597,0.137c0.295,0.041 0.254,0.127 0.822,0.662c12.786,12.051 54.191,32.451 81.888,11.849c11.376,-8.461 9.388,-11.6 9.154,-12.106c-0.656,-1.413 -1.037,-1.176 -2.307,-3.467c-18.648,-33.632 -62.97,-15.817 -79.855,-5.298c-6.395,3.984 -9.176,6.866 -10.299,8.223Z"/><path d="M281.976,244.635c22.555,-26.098 72.942,-30.08 90.666,4.482c2.35,4.582 -29.5,26.901 -55.745,18.449c-7.066,-2.276 -34.976,-16.712 -32.852,-25.317" style="fill:#fff;"/><path d="M282.319,245.496c-0.353,0.005 -0.538,-0.071 -1.132,0.052c0.038,-0.568 -0.16,-1.136 -0.122,-1.705c0.001,-0.011 2.343,-3.044 2.547,-3.309c0.011,-0.014 2.948,-3.122 7.738,-6.456c26.23,-18.26 67.355,-16.427 83.015,14.182c2.358,4.608 -8.648,12.36 -18.042,16.754c-2.401,1.123 -23.681,11.416 -42.702,3.476c-6.867,-2.867 -28.182,-13.673 -31.302,-22.994Zm3.072,-2.302c0.086,0.166 0.22,0.347 0.428,0.521c0.061,0.051 0.149,0.075 0.191,0.142c0.019,0.033 0.291,4.579 14.96,13.511c4.647,2.83 12.632,7.128 17.422,8.54c23.176,6.827 50.401,-10.859 52.41,-16.163c-1.458,-2.86 -10.216,-20.318 -34.924,-23.393c-17.494,-2.177 -36.942,3.891 -49.713,16.206c-0.299,0.289 -0.479,0.412 -0.774,0.636Z"/><path d="M187.947,232.413c-21.525,2.484 -9.015,24.98 0.646,21.651c16.557,-5.707 8.999,-22.764 -0.646,-21.651Z"/><path d="M327.244,232.413c-16.344,1.839 -11.992,25.7 3.493,23.571c3.8,-0.522 12.205,-20.183 -3.493,-23.571Z"/><path d="M251.805,206.176c3.06,-3.601 6.072,-7.244 9.143,-10.836c0.282,-0.33 1.861,-0.683 2.565,0.567c0.049,0.087 0.09,0.177 0.124,0.27c0.379,1.056 -0.108,1.082 -1.389,13.955c2.814,-4.059 5.547,-8.173 8.362,-12.231c0.218,-0.315 1.743,-0.871 2.625,0.284c0.06,0.078 0.137,0.153 0.16,0.248c0.337,1.419 0.578,2.859 0.915,4.278c0.604,-0.066 1.183,-0.299 1.787,-0.365c0.589,-0.065 22.171,2.599 33.219,3.282c19.469,1.202 31.309,-1.348 45.983,-7.248l0.398,0.45l0.781,-0.346l0.798,1.001l-0.63,2.181c-15.829,6.403 -28.431,8.905 -49.426,7.455c-9.243,-0.638 -19.032,-1.893 -32.35,-3.22c-1.658,-0.165 -1.662,-0.134 -1.987,-0.221c-0.747,-0.201 -1.136,-0.871 -1.138,-0.904c-0.092,-1.532 -0.037,-3.07 -0.129,-4.602c-8.189,11.598 -7.98,11.895 -8.975,12.247c-0.917,0.324 -1.965,-0.17 -2.296,-1.083c-0.383,-1.054 0.106,-1.081 1.37,-13.947c-9.781,11.855 -9.563,12.326 -10.841,12.468c-0.675,0.074 -1.373,-0.289 -1.699,-0.885c-0.409,-0.749 -0.172,-0.819 -2.191,-10.447c-8.228,14.628 -7.937,15.049 -9.14,15.399c-0.744,0.217 -1.577,-0.147 -1.922,-0.84c-0.288,-0.578 0.025,-0.617 0.325,-8.074c-3.341,4.975 -2.428,5.689 -5.56,8.279c-0.1,0.083 -0.721,0.597 -1.606,0.247c-12.895,-5.108 -26.049,-11.536 -36.05,-13.535c-8.689,-1.737 -16.601,-0.911 -31.322,1.807c-3.473,0.641 -6.797,1.337 -7.387,1.46c-0.066,0.014 -0.139,0.074 -0.199,0.042c-0.758,-0.408 -0.686,-0.518 -1.441,-0.924c0.472,-0.322 0.454,-1.121 0.926,-1.442c0.102,-0.07 6.979,-1.562 7.587,-1.694c27.448,-5.956 34.72,-2.701 56.828,6.38c1.748,0.718 4.63,1.905 7.301,2.988c1.463,0.594 1.468,0.577 1.596,0.646c1.278,0.694 1.175,0.858 2.455,1.552c5.909,-7.492 5.792,-7.668 6.508,-7.936c1.245,-0.466 2.124,0.756 2.109,1.057c-0.124,2.625 -0.356,5.244 -0.481,7.868c2.81,-5.043 5.538,-10.132 8.348,-15.176c0.154,-0.277 1.381,-0.951 2.339,-0.111c0.603,0.53 0.447,0.667 3.607,9.656Z"/></g></svg>