<?xml version="1.0" encoding="UTF-8" standalone="no"?><!DOCTYPE svg PUBLIC "-//W3C//DTD SVG 1.1//EN" "http://www.w3.org/Graphics/SVG/1.1/DTD/svg11.dtd"><svg width="100%" height="100%" viewBox="0 0 512 512" version="1.1" xmlns="http://www.w3.org/2000/svg" xmlns:xlink="http://www.w3.org/1999/xlink" xml:space="preserve" xmlns:serif="http://www.serif.com/" style="fill-rule:evenodd;clip-rule:evenodd;stroke-linejoin:round;stroke-miterlimit:2;"><g id="mouth1"><path d="M256.226,358.232c-9.021,14.89 -20.316,18.907 -28.781,18.415c-1.332,-0.077 -7.744,-0.081 -21.538,-18.57c-1.954,-2.62 -3.366,-4.709 -3.495,-4.898c-0.53,-0.772 0.145,-0.784 0.316,-1.705c0.54,0.206 1.164,0.111 1.704,0.317c0.001,0.001 10.756,15.964 19.347,20.79c2.173,1.221 3.488,1.48 6.664,1.21c15.791,-1.342 24.189,-19.671 24.301,-19.872c0.694,-1.238 2.336,-1.235 3.036,-0.022c0.737,1.276 12.629,25.402 30.688,20.062c10,-2.956 20.357,-15.426 21.58,-32.033c0.004,-0.046 -0.023,-0.106 0.01,-0.139c0.608,-0.598 0.668,-0.527 1.274,-1.123c0.315,0.471 0.809,0.805 1.125,1.277c0.005,0.008 -0.183,3.432 -0.85,6.928c-5.186,27.168 -28.373,39.45 -46.544,21.309c-4.181,-4.174 -7.182,-9.012 -8.837,-11.946Z"/></g></svg>