<?xml version="1.0" encoding="UTF-8" standalone="no"?><!DOCTYPE svg PUBLIC "-//W3C//DTD SVG 1.1//EN" "http://www.w3.org/Graphics/SVG/1.1/DTD/svg11.dtd"><svg width="100%" height="100%" viewBox="0 0 512 512" version="1.1" xmlns="http://www.w3.org/2000/svg" xmlns:xlink="http://www.w3.org/1999/xlink" xml:space="preserve" xmlns:serif="http://www.serif.com/" style="fill-rule:evenodd;clip-rule:evenodd;stroke-linejoin:round;stroke-miterlimit:2;"><g id="mouth2"><path d="M246.182,340.871c-10.255,-0.971 -20.67,-5.085 -21.994,-5.315c-14.126,-2.458 -28.079,45.619 48.01,49.942c29.408,1.671 50.599,-23.018 33.773,-40.377c-17.939,-18.507 -38.194,-2.205 -59.789,-4.25Z" style="fill:#974d4d;"/><path d="M246.291,339.675l0.003,-0.029c17.894,1.52 34.642,-10.04 51.158,-2.758c1.009,0.445 6.253,2.757 11.002,8.305c15.135,17.681 -4.068,42.209 -33.528,42.31c-0.088,0 -16.674,-0.123 -32.125,-4.812c-45.461,-13.799 -32.848,-51.593 -18.276,-49.022c2.439,0.431 12.485,4.881 20.831,5.901c0.075,0.009 0.075,0.009 0.935,0.105Zm-0.109,1.196l-0.114,1.197c-14.397,-1.404 -21.152,-4.547 -22.551,-4.668c-9.725,-0.843 -20.412,32.008 25.947,43.02c10.258,2.437 22.461,3.42 27.725,3.189c24.821,-1.087 42.428,-21.999 27.301,-37.451c-14.968,-15.289 -31.694,-4.886 -51.191,-3.917c-3.684,0.184 -6.171,-0.055 -7.229,-0.145l0.112,-1.225Z"/><path d="M234.982,339.698c-0.279,5.365 -4.484,16.764 11.191,16.449c8.437,-0.17 9.311,-13.549 9.404,-14.959" style="fill:#e8dfd3;"/><path d="M233.778,339.635l1.266,-1.141l1.414,1.351c-0.475,6.807 -3.523,14.958 9.676,14.647c0.618,-0.015 5.903,0.325 7.584,-11.392c0.123,-0.86 0.123,-1.281 0.192,-1.362c0.075,-0.086 0.151,-0.171 0.22,-0.262c0.032,-0.041 0.042,-0.102 0.085,-0.132c0.038,-0.027 0.097,-0.001 0.139,-0.023c0.015,-0.008 -0.008,-0.039 0.004,-0.051c0.64,-0.659 0.661,-0.633 1.299,-1.29c0.363,0.493 0.754,0.965 1.116,1.459c0.011,0.015 -0.019,0.044 -0.004,0.055c0.037,0.029 0.101,0.012 0.134,0.046c0.03,0.031 0.001,0.047 0.236,0.48c0.062,0.115 -0.182,2.604 -0.719,4.866c-2.814,11.845 -10.083,10.956 -11.704,10.907c-3.349,-0.102 -8.068,-0.837 -10.474,-4.569c-2.671,-4.143 -1.108,-9.622 -0.744,-13.562l0.28,-0.027Z"/><path d="M260.808,339.668c0.857,14.369 1.477,19.022 15.695,16.657c0.52,-0.086 3.918,-0.651 4.701,-4.618c0.968,-4.897 -0.539,-14.551 -0.993,-15.287" style="fill:#e8dfd3;"/><path d="M281.754,335.964c0.871,2.516 2.394,13.596 0.376,17.864c-1.832,3.876 -5.805,4.034 -7.351,4.212c-9.942,1.141 -13.395,-1.448 -14.539,-10.139c-0.328,-2.495 -0.505,-5.756 -0.63,-7.937c-0.005,-0.074 -0.058,-0.164 -0.013,-0.224c0.516,-0.69 0.624,-0.594 1.139,-1.283c0.278,0.499 1.005,0.639 1.283,1.139c0.175,0.313 0.092,9.75 2.295,13.345c1.476,2.409 4.321,3.308 11.945,1.939c2.81,-0.504 3.312,-2.957 3.389,-3.33c0.794,-3.877 -0.309,-12.243 -0.875,-14.449l0.877,-0.357l-0.094,-1.385c0.575,0.16 1.161,0.28 1.736,0.439c0.051,0.015 0.087,0.063 0.137,0.081c0.106,0.038 0.22,0.047 0.325,0.085Z"/><path d="M219.751,336.062c-1.65,11.139 2.667,15.896 3.443,15.019c8.045,-9.088 7.172,-11.508 7.682,-12.426" style="fill:#e8dfd3;"/><path d="M232.261,339.319l0.029,0.01c-0.157,0.708 -0.325,4.387 -7.932,12.824c-1.529,1.697 -4.71,0.007 -5.995,-6.083c-0.753,-3.564 -0.348,-6.799 0.145,-9.918c0.014,-0.088 -0.023,-0.203 0.043,-0.263c0.636,-0.58 0.737,-0.447 1.373,-1.027c0.269,0.523 0.75,0.918 1.018,1.441c0.053,0.104 -0.55,2.471 0.124,7.471c0.061,0.457 0.513,3.548 1.766,5.303c1.26,-1.474 2.964,-3.538 4.41,-5.819c2.194,-3.462 1.829,-4.859 2.14,-5.004c0.126,-0.059 0.233,-0.161 0.365,-0.204c0.578,-0.19 1.173,-0.325 1.751,-0.515c0.241,0.846 0.828,1.631 0.763,1.784Z"/><path d="M284.648,336.182c0.342,3.234 5.846,13.07 7.35,13.17c1.652,0.111 2.63,-0.08 5.298,-10.012" style="fill:#e8dfd3;"/><path d="M292.561,347.755l-0.003,-0.004c1.189,-1.325 2.552,-6.845 2.913,-7.759c0.021,-0.053 0.061,-0.024 0.442,-0.559c0.064,-0.091 0.132,-0.179 0.185,-0.277c0.022,-0.039 -0.002,-0.105 0.035,-0.129c0.477,-0.309 0.999,-0.541 1.475,-0.85c0.257,0.507 0.594,0.971 0.85,1.478c0.021,0.041 -0.034,0.087 -0.036,0.132c-0.001,0.04 0.04,0.606 0.072,0.853c0.081,0.619 -0.049,0.604 -0.208,1.206c-1.889,7.142 -3.348,8.116 -3.975,8.534c-0.976,0.652 -2.605,0.819 -3.642,0.017c-2.445,-1.89 -6.771,-10.881 -7.195,-13.88c-0.009,-0.065 -0.061,-0.141 -0.024,-0.196c0.477,-0.708 0.579,-0.627 1.058,-1.337c0.424,0.402 0.922,0.721 1.346,1.123c0.071,0.068 -0.035,1.365 2.613,6.123c0.609,1.095 2.62,4.468 3.908,5.594c0.062,-0.001 0.119,-0.007 0.148,-0.025c-0.005,-0.018 0.022,-0.027 0.038,-0.044Z"/><path d="M238.624,378.108c0.839,-8.689 4.77,-13.428 5.562,-13.648c8.052,-2.229 5.137,18.755 6.292,14.989" style="fill:#e8dfd3;"/><path d="M244.785,365.911c-2.616,2.646 -3.925,7.861 -4.177,8.724c-0.466,1.594 -0.635,2.423 -0.782,3.592c-0.017,0.135 -0.096,0.079 -1.318,1.084c-0.296,-0.489 -0.791,-0.836 -1.086,-1.324c-0.046,-0.075 0.193,-2.247 0.214,-2.441c0.005,-0.047 0.164,-3.281 2.08,-7.414c1.086,-2.344 2.728,-4.777 4.017,-5.155c1.716,-0.503 4.86,-0.586 6.583,3.807c1.612,4.112 1.344,10.569 1.379,12.254c0.005,0.214 0.028,0.219 -0.065,0.413c-0.04,0.084 -0.071,0.09 -0.126,0.09c0.046,0.089 0.09,0.18 0.13,0.273c0.016,0.037 -0.033,0.034 -0.101,0.498c-0.138,0.938 -2.08,1.609 -2.68,-0.212c-0.159,-0.482 -0.224,-0.467 -0.245,-0.973c-0.087,-2.07 0.087,-8.39 -1.397,-11.609c-0.852,-1.851 -1.786,-1.738 -2.426,-1.607Z"/><path d="M255.444,381.773c-0.062,-1.399 -1.022,-22.877 5.099,-16.746c6.204,6.213 3.211,22.039 4.636,17.551" style="fill:#e8dfd3;"/><path d="M258.57,365.454c-1.148,0.916 -2.222,7.292 -1.934,15.786c0.005,0.16 0.105,0.346 0.017,0.48c-0.311,0.478 -0.843,0.785 -1.155,1.262c-0.351,-0.45 -0.912,-0.707 -1.263,-1.158c-0.002,-0.002 -0.288,-5.501 -0.014,-9.987c0.171,-2.798 0.652,-9.932 4.77,-9.394c1.907,0.25 6.458,3.425 7.188,14.045c0.189,2.754 -0.026,3.884 -0.134,5.858c0.112,0.199 0.219,0.4 0.306,0.609c0.028,0.069 -0.047,0.141 -0.069,0.211c-0.028,0.088 -0.293,1.451 -1.437,1.461c-1.145,0.011 -1.332,-1.176 -1.355,-1.326c-0.163,-1.036 -0.401,-6.933 -0.92,-9.831c-0.59,-3.299 -1.421,-4.897 -1.964,-5.818c-0.947,-1.609 -1.758,-2.061 -1.971,-2.178c-0.023,-0.006 -0.054,-0.007 -0.065,-0.02Z"/><path d="M270.675,383.472c-0.116,-1.413 -2.179,-26.474 4.636,-17.105c4.668,6.42 2.93,21.223 3.774,15.525" style="fill:#e8dfd3;"/><path d="M272.832,365.965c-1.148,1.938 -1.524,9.5 -0.958,17.26c0.003,0.049 0.04,0.108 0.011,0.148c-0.345,0.456 -0.766,0.852 -1.11,1.308c-0.365,-0.442 -0.945,-0.67 -1.31,-1.112c-0.001,-0.002 -0.44,-4.906 -0.512,-9.118c-0.094,-5.551 0.202,-11.898 3.904,-11.73c2.111,0.096 5.233,3.208 6.619,9.647c0.122,0.57 0.851,3.955 0.818,7.248c-0.004,0.425 -0.044,0.843 -0.144,2.259c0.046,0.065 0.09,0.13 0.132,0.198c0.03,0.048 -0.135,1.07 -0.15,1.162c-0.263,1.627 -2.337,1.593 -2.581,-0.014c-0.038,-0.25 0,-0.253 -0.42,-3.134c-0.273,-1.877 -0.511,-10.607 -4.114,-13.966c-0.06,-0.056 -0.121,-0.108 -0.185,-0.156Z"/><path d="M284.317,382.637c-1.405,-1.896 -0.623,-23.695 5.827,-16.687c4.118,4.474 3.775,12.341 3.907,13.648c0.033,0.329 0.099,-1.312 0.133,-0.983" style="fill:#e8dfd3;"/><path d="M285.277,382.001c-0.053,0.554 0.194,1.284 -0.241,1.607c-0.207,0.153 -1.752,1.297 -2.344,-2.203c-1.082,-6.4 -0.139,-19.662 5.817,-18.415c2.53,0.529 5.517,4.286 6.553,9.887c0.56,3.029 0.423,4.451 0.293,6.069c0.003,0.565 0.041,1.594 -0.902,1.9c-0.783,0.255 -1.536,-0.313 -1.649,-0.996c-0.037,-0.227 -0.026,-0.228 -0.434,-2.84c-0.122,-0.781 -0.538,-7.49 -3.948,-10.418c-0.348,-0.298 -0.581,-0.36 -0.633,-0.391c-0.006,0.011 -0.014,0.022 -0.021,0.026c-0.554,0.302 -1.516,2.225 -2.096,6.086c-0.218,1.456 -0.787,5.917 -0.553,8.48c0.079,0.862 0.164,1.042 0.206,1.181l-0.048,0.027Zm0.005,-0.049c0.007,-0.004 0.013,-0.009 0.02,-0.013c0.007,-0.005 -0.013,-0.029 -0.015,-0.021c-0.001,0.012 -0.003,0.023 -0.005,0.034Z"/><path d="M299.548,376.32c-2.115,-7.613 0.348,-10.569 0.927,-11.264c0.396,-0.475 2.598,-3.117 5.827,5.096" style="fill:#e8dfd3;"/><path d="M301.886,365.848c-0.002,0.002 -0.004,0.003 -0.007,0.005c-0.135,0.094 -1.45,1.356 -1.618,4.257c-0.106,1.823 0.078,2.102 0.224,4.228c0.106,1.546 0.297,1.541 0.231,1.658c-0.282,0.497 -0.293,1.339 -0.844,1.492c-1.356,0.377 -1.265,-0.234 -1.734,-1.561c-0.041,-0.118 -1.063,-2.321 -0.955,-5.743c0.169,-5.409 3.601,-9.303 6.946,-6.596c0.654,0.529 2.369,2.399 3.166,5.246c0.04,0.143 0.074,0.287 0.112,0.431c0.027,0.1 0.05,0.202 0.08,0.301c0.416,1.373 -0.558,1.756 -0.703,1.812c-0.143,0.057 -1.098,0.432 -1.744,-0.833c-0.45,-0.882 -0.542,-0.829 -1.147,-2.022c-1.101,-2.172 -1.85,-2.614 -2.007,-2.675Z"/><path d="M231.737,375.486c0.563,-7.355 4.596,-14.228 -1.457,-13.32c-3.091,0.463 -4.718,5.205 -5.828,6.794" style="fill:#e8dfd3;"/><path d="M223.763,369.97c-0.254,-1.744 -0.277,-1.746 -0.239,-1.833c0.093,-0.215 0.343,-1.087 0.432,-1.277c1.015,-2.186 2.024,-3.439 2.241,-3.709c0.278,-0.346 2.157,-2.948 5.702,-2.547c4.274,0.483 3.051,5.634 2.909,6.384c-0.082,0.433 -0.302,1.596 -1.192,5.378c-0.226,0.962 -0.483,1.697 -0.667,3.216c-0.017,0.136 -0.096,0.082 -1.305,1.116c-0.27,-0.507 -0.849,-0.804 -1.119,-1.311c-0.001,-0.001 0.103,-2.278 0.254,-3.472c0.264,-2.077 1.74,-7.204 1.153,-8.176c-0.052,-0.085 -1.462,-0.479 -2.625,0.52c-1.487,1.277 -2.353,3.496 -3.009,4.355c-0.068,0.088 -0.675,0.812 -0.755,0.915c-0.595,0.769 -0.837,0.207 -1.78,0.441Z"/><path d="M215.579,361.272c0.177,-0.489 1.959,-5.399 5.695,-3.129c2.909,1.767 0.41,7.447 -0.133,9.029" style="fill:#e8dfd3;"/><path d="M215.166,362.408c-0.161,-0.548 -0.561,-1.005 -0.722,-1.553c-0.001,-0.003 0.441,-1.38 0.767,-1.938c1.823,-3.123 4.957,-3.39 7.157,-1.673c3.199,2.496 0.844,8.145 0.141,10.042c-0.243,0.657 -0.158,0.765 -0.789,1.074c-0.015,0.007 -1.011,0.067 -1.018,0.061c-0.25,-0.221 -0.602,-0.367 -0.748,-0.668c-0.322,-0.658 -0.181,-0.694 0.066,-1.381c0.206,-0.573 2.372,-5.919 0.58,-7.042c-1.343,-0.842 -2.181,-0.459 -3.522,1.66c-0.26,0.412 -0.361,0.693 -0.363,0.694c-0.516,0.241 -1.032,0.484 -1.549,0.724Z"/><path d="M310.282,365.872c-0.56,-0.181 -1.134,-0.314 -1.694,-0.495c-0.023,-0.008 -0.02,-0.044 -0.033,-0.064c-0.018,-0.027 -0.563,-0.5 -0.928,-2.411c-0.84,-4.397 2.303,-6.268 2.793,-6.56c0.385,-0.229 0.395,-0.207 0.803,-0.287c1.048,-0.207 1.31,-0.401 1.749,0.577c0.441,0.978 -0.064,0.94 -0.761,1.757c-0.357,0.419 -0.492,0.261 -1.113,0.91c-1.577,1.648 -0.401,4.322 -0.381,4.509c0.012,0.113 0.017,0.11 0.03,0.222c0.035,0.285 -0.022,0.281 -0.465,1.842Z"/><path d="M246.291,339.675l0.003,-0.029c17.894,1.52 34.642,-10.04 51.158,-2.758c1.009,0.445 6.253,2.757 11.002,8.305c15.135,17.681 -4.068,42.209 -33.528,42.31c-0.088,0 -16.674,-0.123 -32.125,-4.812c-45.461,-13.799 -32.848,-51.593 -18.276,-49.022c2.439,0.431 12.485,4.881 20.831,5.901c0.075,0.009 0.075,0.009 0.935,0.105Zm-0.109,1.196l-0.114,1.197c-14.397,-1.404 -21.152,-4.547 -22.551,-4.668c-9.725,-0.843 -20.412,32.008 25.947,43.02c10.258,2.437 22.461,3.42 27.725,3.189c24.821,-1.087 42.428,-21.999 27.301,-37.451c-14.968,-15.289 -31.694,-4.886 -51.191,-3.917c-3.684,0.184 -6.171,-0.055 -7.229,-0.145l0.112,-1.225Z"/></g></svg>