<?xml version="1.0" encoding="UTF-8" standalone="no"?><!DOCTYPE svg PUBLIC "-//W3C//DTD SVG 1.1//EN" "http://www.w3.org/Graphics/SVG/1.1/DTD/svg11.dtd"><svg width="100%" height="100%" viewBox="0 0 512 512" version="1.1" xmlns="http://www.w3.org/2000/svg" xmlns:xlink="http://www.w3.org/1999/xlink" xml:space="preserve" xmlns:serif="http://www.serif.com/" style="fill-rule:evenodd;clip-rule:evenodd;stroke-linejoin:round;stroke-miterlimit:2;"><g id="mouth5"><path d="M239.049,348.302c-0,0 1.126,26.727 6.861,33.588c5.734,6.86 15.769,17.305 21.708,7.168c5.94,-10.138 5.53,-31.028 5.018,-36.045c-0.512,-5.018 0.614,-9.626 -7.27,-9.011c-7.885,0.614 -26.317,4.3 -26.317,4.3Z" style="fill:#db3f3f;"/><path d="M310.178,331.91c0.107,0.561 0.343,1.092 0.45,1.653c0.003,0.018 -1.238,2.184 -2.86,3.783c-3.373,3.324 -9.196,7.229 -28.39,7.963c-14.643,0.56 -20.672,-0.525 -29.369,1.804c-15.224,4.077 -27.963,14.681 -46.182,8.672c-0.535,-0.176 -1.435,-0.507 -1.438,-0.512c-0.329,-0.475 -0.404,-1.096 -0.733,-1.571c0.609,-0.134 1.139,-0.536 1.749,-0.67c0.21,-0.047 6.12,2.72 14.959,1.272c13.504,-2.212 24.509,-11.007 39.23,-12.138c12.591,-0.967 34.005,1.354 46.409,-5.573c1.931,-1.079 3.527,-2.557 4.352,-3.935c0.06,-0.099 0.069,-0.255 0.176,-0.299c0.793,-0.325 0.852,-0.123 1.647,-0.449Z"/><path d="M270.79,343.117c0.52,-0.098 0.545,-0.091 0.983,0.207c0.662,0.451 0.475,0.593 0.653,1.375c1.034,4.543 2.211,8.698 2.741,18.087c2.038,36.106 -15.252,32.518 -20.407,30.169c-9.135,-4.163 -16.284,-17.696 -16.912,-34.568c-0.102,-2.754 -0.09,-5.64 0.162,-9.822c0.067,-1.11 0.176,-1.354 1.288,-1.296c1.332,0.071 1.172,0.544 1.128,1.874c-0.263,7.757 1.006,19.75 5.307,28.796c6.217,13.08 15.349,14.563 19.879,11.346c8.959,-6.366 5.348,-32.574 5.094,-35.507c-0.142,-1.642 -0.539,-6.884 -0.962,-9.126c-0.099,-0.52 -0.092,-0.545 0.206,-0.983c0.299,-0.438 0.32,-0.453 0.84,-0.552Z"/><path d="M256.29,343.095c0.277,0.538 1.056,0.695 1.333,1.234c0.019,0.036 0.787,7.608 0.854,8.27c0.325,3.208 0.8,8.05 1.332,23.33c0.039,1.099 -0.233,1.064 -1.232,1.53c-0.008,0.004 -0.941,-0.33 -0.953,-0.341c-0.448,-0.408 -0.399,-0.461 -0.435,-1.066c-0.778,-13.033 -1.119,-13.009 -1.748,-26.361c-0.247,-5.233 -0.307,-5.24 -0.281,-5.273c0.359,-0.456 0.771,-0.867 1.13,-1.323Z"/></g></svg>