<?xml version="1.0" encoding="UTF-8" standalone="no"?><!DOCTYPE svg PUBLIC "-//W3C//DTD SVG 1.1//EN" "http://www.w3.org/Graphics/SVG/1.1/DTD/svg11.dtd"><svg width="100%" height="100%" viewBox="0 0 512 512" version="1.1" xmlns="http://www.w3.org/2000/svg" xmlns:xlink="http://www.w3.org/1999/xlink" xml:space="preserve" xmlns:serif="http://www.serif.com/" style="fill-rule:evenodd;clip-rule:evenodd;stroke-linejoin:round;stroke-miterlimit:2;"><g id="mouth6"><path d="M276.998,387.671c0,0 10.25,-17.5 11,-19c0.75,-1.5 4,-17 3.75,-17.25c-0.25,-0.25 -38.5,-17.75 -41.25,-15.25c-2.75,2.5 -9.75,17.25 -10.75,19.75c-1,2.5 37.25,31.75 37.25,31.75Z" style="fill:#744545;"/><path d="M291.498,351.421c0,0 -1.25,-17.25 -7,-20.5c-5.75,-3.25 -17,-8 -24.75,-2.25c-7.75,5.75 -9,8 -9,8c0,0 2.5,1.25 5.25,3.5c2.75,2.25 5.25,9 9,10.25c3.75,1.25 18.5,3.5 26.5,1Z" style="fill:#fff;"/><path d="M249.641,337.023c11.563,2.601 8.549,9.886 16.111,13.599c8.943,4.389 27.088,2.448 25.459,-0.484" style="fill:#fff;"/><path d="M290.267,350.3l0.373,-1.239c1.234,0.462 1.819,0.046 1.896,1.361c0.117,2.018 -2.86,3.015 -4.168,3.468c-4.482,1.551 -19.909,2.023 -26.305,-3.843c-4.775,-4.379 -3.442,-9.613 -12.591,-11.828c-0.032,-0.008 -0.078,0.005 -0.097,-0.023c-0.482,-0.701 -0.424,-0.735 -0.908,-1.438c0.51,-0.251 0.933,-0.657 1.443,-0.909c0,0 1.296,0.277 2.59,0.704c9.212,3.035 7.668,9.379 13.659,12.465c2.755,1.42 9.582,3.296 19.56,2.106c2.101,-0.25 3.249,-0.307 4.422,-0.897l0.126,0.073Z"/><path d="M271.923,325.916c-33.101,-2.425 -52.254,71.905 -22.935,74.496c37.221,3.29 60.372,-71.754 22.935,-74.496Z" style="fill:none;"/><clipPath id="_clip1"><path d="M271.923,325.916c-33.101,-2.425 -52.254,71.905 -22.935,74.496c37.221,3.29 60.372,-71.754 22.935,-74.496Z"/></clipPath><g clip-path="url(#_clip1)"><path d="M276.498,388.171c0,0 -1.5,-12.75 -4,-17.75c-2.5,-5 -10,-14.25 -16.75,-15c-6.75,-0.75 -11.75,-0.75 -16,0.5c-4.25,1.25 -4.25,15 -4.75,19.5c-0.5,4.5 1.5,19.25 7,22.25c5.5,3 21,1.25 26.25,-2.5c5.25,-3.75 8.25,-7 8.25,-7Z" style="fill:#b86767;"/></g><path d="M271.923,325.916l0.097,-1.263c2.674,0.229 16.106,0.596 19.798,17.014c5.368,23.87 -15.281,63.329 -43.354,60.389c-15.35,-1.607 -19.174,-21.743 -12.322,-43.442c4.032,-12.772 13.266,-28.809 26.777,-32.919c4.21,-1.28 7.472,-1.092 9.087,-0.985l-0.083,1.206Zm-0.093,1.204c-0.829,-0.044 -7.697,-0.898 -16.154,6.011c-20.519,16.761 -28.113,63.816 -6.539,65.6c29.795,2.465 49.86,-47.649 35.241,-65.215c-1.534,-1.844 -5.21,-5.712 -12.553,-6.338l0.005,-0.058Z"/><path d="M239.763,355.701c0.594,0.445 33.782,-10.046 35.745,32.169" style="fill:#b86767;"/><path d="M239.801,355.41l0.032,-0.903c3.788,-0.595 34.982,-8.042 37.105,32.794c0.043,0.839 0.21,0.928 -0.355,1.548c-0.012,0.013 -1.009,0.479 -1.017,0.476c-0.346,-0.125 -0.764,-0.133 -1.036,-0.38c-0.64,-0.583 -0.349,-0.739 -0.748,-4.737c-0.685,-6.853 -3.526,-28.632 -26.504,-28.096c-4.805,0.113 -7.106,1.082 -7.985,0.708c-0.063,-0.027 -0.123,-0.063 -0.182,-0.098c-1.047,-0.628 -0.171,-0.702 0.69,-1.312Zm0.304,-0.242c0.137,-0.125 0.268,-0.267 0.383,-0.433l-0.075,-0.048l-0.308,0.481Z"/></g></svg>