<?xml version="1.0" encoding="UTF-8" standalone="no"?><!DOCTYPE svg PUBLIC "-//W3C//DTD SVG 1.1//EN" "http://www.w3.org/Graphics/SVG/1.1/DTD/svg11.dtd"><svg width="100%" height="100%" viewBox="0 0 512 512" version="1.1" xmlns="http://www.w3.org/2000/svg" xmlns:xlink="http://www.w3.org/1999/xlink" xml:space="preserve" xmlns:serif="http://www.serif.com/" style="fill-rule:evenodd;clip-rule:evenodd;stroke-linejoin:round;stroke-miterlimit:2;"><g id="mouth4"><path d="M201.964,352.912l0.323,-0.126c1.799,3.116 8.921,11.532 23.968,16.533c2.664,0.885 15.981,5.31 35.015,2.283c30.924,-4.917 46.206,-26.823 47.462,-28.144c0.007,-0.007 0.509,-0.346 1.169,-0.899c0.068,-0.057 0.124,-0.13 0.201,-0.173c0.042,-0.024 0.097,-0.009 0.144,-0.019c0.103,-0.022 0.228,-0.007 0.307,-0.077c0.463,-0.406 0.333,-0.498 0.377,-0.526c0.302,-0.187 0.557,-0.5 0.907,-0.558c0.017,-0.002 1.05,0.241 1.055,0.249c0.188,0.301 0.5,0.557 0.558,0.907c0.058,0.35 -0.111,0.706 -0.237,1.038c-0.067,0.178 -0.221,0.309 -0.332,0.464c-0.105,0.146 -0.007,0.523 -0.01,0.54c-0.012,0.054 -0.106,0.19 -0.635,1.531c-0.084,0.215 -0.125,0.318 -1.739,2.295c-5.952,7.291 -23.591,26.157 -54.824,28.582c-6.973,0.542 -19.554,0.816 -32.271,-4.122c-15.218,-5.909 -23.17,-17.84 -23.446,-19.258c-0.036,-0.185 0.031,-0.624 0.064,-0.642c0.502,-0.274 1.057,-0.441 1.559,-0.716l0.385,0.838Zm0.206,0.449l0.125,0.272l0.037,-0.249l-0.162,-0.023Z"/></g></svg>