<?xml version="1.0" encoding="UTF-8" standalone="no"?><!DOCTYPE svg PUBLIC "-//W3C//DTD SVG 1.1//EN" "http://www.w3.org/Graphics/SVG/1.1/DTD/svg11.dtd"><svg width="100%" height="100%" viewBox="0 0 512 512" version="1.1" xmlns="http://www.w3.org/2000/svg" xmlns:xlink="http://www.w3.org/1999/xlink" xml:space="preserve" xmlns:serif="http://www.serif.com/" style="fill-rule:evenodd;clip-rule:evenodd;stroke-linejoin:round;stroke-miterlimit:2;"><g id="mouth7"><path d="M259.266,342.812c-11.257,-0.113 -28.05,8.65 -29.623,11.272c-1.572,2.621 19.137,2.883 24.38,2.883c5.243,0 32.244,-2.621 34.603,-3.932c2.359,-1.311 -18.846,-10.118 -29.36,-10.223Z" style="fill:#fff;"/><path d="M206.837,380.56c-0,0 0.524,2.622 10.748,1.573c10.223,-1.048 27.525,-7.078 35.389,-6.291c7.865,0.786 33.555,9.175 43.778,7.864c10.224,-1.311 15.205,-1.049 12.321,-7.34c-2.884,-6.291 -15.991,-20.709 -17.564,-22.544c-1.572,-1.835 0.787,0.262 -10.485,1.572c-11.273,1.311 -46.138,2.098 -51.381,-1.31c-5.243,-3.408 -19.923,22.02 -22.806,26.476Z" style="fill:#885050;"/><path d="M206.636,378.01c0.256,-0.5 0.468,-0.91 0.515,-1c4.3,-8.294 13.22,-22.972 30.857,-31.315c21.424,-10.135 48.364,-6.372 69.402,23.495c1.045,1.484 7.278,9.991 1.333,14.48c-8.186,6.181 -35.38,-2.025 -47.165,-4.618c-0.135,-0.03 -2.249,-0.669 -7.425,-0.714c-22.869,-0.199 -40.295,13.407 -49.556,3.462c-1.255,-1.349 -0.747,-1.607 0.055,-3.267c0.004,-0.008 1.595,-0.56 1.612,-0.559c0.139,0.008 0.262,0.02 0.372,0.036Zm1.996,1.493c7.467,5.917 27.244,-7.785 51.04,-5.243c5.34,0.57 37.068,10.445 45.754,6.415c0.827,-0.383 3.009,-1.246 0.141,-6.439c-0.682,-1.234 -7.845,-12.86 -19.436,-20.893c-20.173,-13.98 -43.741,-10.576 -62.561,6.92c-2.108,1.961 -9.386,8.683 -14.938,19.24Z"/><path d="M228.676,353.453c0.041,-0.071 0.089,-0.155 0.153,-0.263c2.001,0.693 3.882,0.809 10.994,1.533c23.931,2.436 47.639,-2.166 47.97,-2.094c0.367,0.079 0.622,0.457 0.989,0.536l0.798,-0.508l0.634,1.514c-0.318,0.49 -0.691,0.942 -1.009,1.433c-0.16,0.246 -0.17,0.622 -0.422,0.774c-0.004,0.003 -2.926,0.537 -4.675,0.806c-17.954,2.763 -31.753,2.426 -41.107,1.55c-3.512,-0.329 -8.064,-0.893 -13.774,-2.789c-1.555,-0.517 -1.909,-0.743 -2.18,-1.201c-0.018,-0.029 -0.053,-0.062 -0.042,-0.094c0.276,-0.816 0.34,-0.789 0.616,-1.603l1.055,0.406Zm0.424,0.163l0.124,0.047l-0.049,-0.088l-0.075,0.041Z"/><path d="M287.329,396.444c0.435,-0.374 0.729,-0.892 1.164,-1.266c0.159,-0.137 5.381,0.147 7.823,0.026c5.527,-0.273 9.223,-1.926 16.41,-5.572c0.084,-0.042 1.695,-0.838 3.083,-1.673c1.06,-0.638 1.361,-0.908 2.039,0.129c0.808,1.234 0.144,1.329 -1.062,2.172c-2.002,1.4 -6.296,4.774 -13.307,6.588c-6.46,1.672 -10.6,0.647 -14.588,0.745c-0.1,0.002 -0.219,0.069 -0.299,0.009c-0.693,-0.509 -0.569,-0.648 -1.263,-1.158Z"/><path d="M213.634,393.125c-0.151,1.588 1.358,2.575 -0.24,2.525c-6.839,-0.215 -10.388,0.015 -14.102,-4.369c-1.203,-1.42 -2.503,-3.379 -3.659,-5.147c-0.595,-0.909 -0.616,-1.159 0.29,-1.756c1.064,-0.703 1.239,-0.31 1.947,0.749c4.975,7.437 5.969,7.193 11.976,7.694c2.043,0.171 3.485,0.28 3.788,0.304Z"/></g></svg>