<?xml version="1.0" encoding="UTF-8" standalone="no"?><!DOCTYPE svg PUBLIC "-//W3C//DTD SVG 1.1//EN" "http://www.w3.org/Graphics/SVG/1.1/DTD/svg11.dtd"><svg width="100%" height="100%" viewBox="0 0 512 512" version="1.1" xmlns="http://www.w3.org/2000/svg" xmlns:xlink="http://www.w3.org/1999/xlink" xml:space="preserve" xmlns:serif="http://www.serif.com/" style="fill-rule:evenodd;clip-rule:evenodd;stroke-linejoin:round;stroke-miterlimit:2;"><g id="head1"><path d="M122.068,414.628c51.84,43.393 200.32,102.4 305.28,-12.8l52.48,-107.52l11.52,-21.12l-7.68,-17.92l-4.48,-91.52l-215.04,-108.8l-217.6,148.48c0,0 -12.16,0 -12.8,7.68c-0.64,7.68 1.92,15.36 7.68,24.32c5.76,8.96 8.321,18.56 4.48,26.24c-3.84,7.68 -13.44,24.96 -7.04,37.76c6.4,12.8 33.28,46.08 34.56,60.8c1.28,14.72 -12.486,3.234 48.64,54.4Z" style="fill:#d29e3b;"/><path d="M127.623,419.748c0,0 3.84,14.72 6.4,21.76c2.56,7.04 1.92,17.28 -6.4,19.2c-8.32,1.92 -18.56,-1.92 -30.08,-1.28c-11.52,0.64 -37.76,11.52 -46.08,2.56c-8.32,-8.96 -26.879,-22.4 -16.64,-46.72c10.24,-24.32 23.04,-46.72 21.76,-63.36c-1.28,-16.64 -3.84,-32 -3.84,-32l17.28,1.92l13.441,-5.76c-0,0 -8.321,69.12 44.159,103.68Z" style="fill:#e9ed77;"/><path d="M427.143,403.748c0,0 3.2,27.52 -3.2,43.52c-6.4,16 6.4,16 19.2,21.12c12.8,5.12 46.72,6.4 49.92,-14.08c3.2,-20.48 4.48,-27.52 1.92,-39.68c-2.56,-12.16 -22.4,-99.84 -16,-114.56c6.4,-14.72 -6.4,0.64 -16,1.92c-9.6,1.28 -21.12,0 -21.12,0c0,0 7.68,12.16 8.32,21.12c0.64,8.96 0,42.24 -5.12,51.84c-5.12,9.6 -17.92,28.8 -17.92,28.8Z" style="fill:#e9ed77;"/><path d="M484.743,255.268c0,-7.04 -1.92,-51.84 8.32,-75.52c0,0 5.76,-14.08 -0.64,-23.68c-6.4,-9.6 -23.68,-23.68 -14.08,-49.92c9.6,-26.24 6.4,-25.6 -4.48,-29.44c-10.88,-3.84 -23.68,-8.32 -25.6,-18.56c-1.92,-10.24 -8.32,-24.32 -31.36,-24.96c-23.04,-0.64 -54.4,6.4 -67.84,6.4c-13.44,0 -97.92,-17.28 -125.44,-15.36c-27.52,1.92 -48,12.16 -68.48,20.48c-20.48,8.32 -28.16,3.84 -55.04,-3.84c-26.879,-7.68 -49.28,-12.8 -57.599,-8.32c-8.32,4.48 -16,19.84 -14.72,30.72c1.28,10.88 11.52,29.44 10.239,40.32c-1.28,10.88 -8.959,40.32 -7.039,51.2c1.92,10.88 17.279,28.16 15.999,35.84c-1.279,7.68 -0.64,13.44 -0.64,13.44l28.8,-0.64c0,0 23.04,33.92 23.04,26.24c0,-7.68 -6.399,-45.44 0.641,-49.28c7.039,-3.84 27.519,7.04 33.279,0.64c5.76,-6.4 21.76,-47.36 32.64,-44.16c10.88,3.2 21.76,16.64 45.44,1.28c23.68,-15.36 62.097,-51.97 75.52,-45.44c23.68,11.52 14.08,34.56 38.4,47.36c14.769,7.773 35.2,3.84 47.36,14.08c12.16,10.24 21.12,32 23.04,42.24c1.92,10.24 7.68,30.08 14.08,18.56c6.4,-11.52 27.52,-31.36 40.96,-32c13.44,-0.64 22.4,5.76 23.68,19.2c1.28,13.44 -5.12,27.52 0,35.2c5.12,7.68 11.52,24.96 11.52,17.92Z" style="fill:#e9ed77;"/><path d="M417.5,212.737c1.764,1.329 1.133,0.922 -0,0Zm-28.554,-27.92c-5.102,-10.968 -12.2,-24.328 -23.754,-28.767c-5.958,-2.29 -10.293,-1.714 -19.168,-3.594c-49.047,-10.39 -43.557,-39.505 -50.773,-50.234c-1.14,-1.695 -3.146,-3.99 -10.43,-4.04c-8.383,-0.057 -15.969,3.622 -16.696,3.864c-0.01,0.003 -1.098,0.262 -2.448,0.681c-1.051,0.327 -4.73,2.319 -7.251,3.824c-22.359,13.352 -41.789,36.761 -46.932,40.457c-19.378,13.927 -35.674,-9.205 -48.076,-3.533c-18.004,8.233 -13.13,36.614 -31.064,42.473c-9.912,3.238 -21.904,-2.72 -24.847,-3.508c-3.229,-0.865 -5.875,-0.683 -7.154,5.371c-2.55,12.07 3.187,34.908 1.024,41.61c-0.833,2.582 -3.524,4.755 -7.677,1.436c-1.124,-0.898 -2.22,-2.068 -2.835,-2.749c-0.772,-0.854 -0.913,-0.864 -0.849,-2.015c0.001,-0.017 0.799,-1.673 0.807,-1.676c0.579,-0.202 1.127,-0.635 1.739,-0.601c1.284,0.072 1.222,0.316 2.096,1.264c1.002,1.088 1.712,1.709 2.203,2.074c0.929,-6.525 -4.579,-28.816 -2.031,-41.07c3.067,-14.747 16.174,-9.079 16.689,-8.892c11.45,4.169 19.053,4.336 23.582,-1.037c7.759,-9.204 7.432,-30.725 25.378,-39.047c15.605,-7.236 29.923,12.836 44.149,5.89c2.771,-1.352 4.117,-2.749 7.287,-5.942c10.571,-10.646 29.482,-30.424 50.334,-40.504c0.309,-0.149 2.212,-1.509 3.183,-1.915c0.907,-0.38 13.874,-6.261 26.058,-3.549c12.593,2.803 13.284,14.786 16.779,25.071c3.259,9.59 9.935,23.312 41.323,29.537c13.245,2.627 28.863,-1.016 45.568,35.767c0.633,1.395 0.703,1.4 0.979,4.722c0.296,3.575 1.712,24.44 6.547,29.236c0.545,0.54 0.902,0.715 2.205,-0.198c2.843,-1.993 5.349,-6.776 6.72,-8.052c0.532,-0.496 1.757,-1.543 3.601,-1.163c1.126,0.231 1.88,1.024 2.008,1.158c0.58,0.61 1.43,2.175 0.57,4.088c-0.162,0.361 -0.37,0.742 -0.642,1.194c0.121,0.1 0.239,0.197 0.352,0.289c-0.112,-0.084 -0.232,-0.174 -0.363,-0.272c-1.024,1.693 -2.957,4.377 -6.799,10.688l-0.485,-0.242c-0.01,0.33 -0.032,0.659 -0.076,0.986c-0.019,0.134 -1.628,1.225 -3.103,0.206c-0.513,-0.354 -0.825,-0.853 -0.971,-1.376c-1.361,0.377 -2.805,0.423 -4.311,-0.022c-6.387,-1.886 -10.105,-11.821 -12.021,-33.21c-0.234,-2.605 -0.305,-3.637 -0.425,-4.678Zm19.419,36.728l0.052,0.036l0.007,-0.012l-0.046,-0.032c-0.005,0.002 -0.009,0.005 -0.013,0.008Z"/><path d="M478.583,291.549c5.933,-7.525 9.889,-15.16 6.527,-24.911c-4.523,-13.122 -20.413,-25.753 -16.575,-45.515c0.612,-3.151 7.837,-34.359 -15.168,-33.922c-8.206,0.155 -19.131,4.614 -28.386,13.261c-2.183,2.04 -6.897,6.194 -10.229,12.647c-0.452,0.875 -0.473,0.923 -1.402,1.247c-0.016,0.006 -1.878,-0.103 -1.884,-0.109c-0.414,-0.465 -1.031,-0.811 -1.235,-1.398c-0.393,-1.126 -0.232,-1.171 0.277,-2.252c5.511,-11.703 13.65,-17.631 15.179,-18.81c19.329,-14.889 44.116,-16.247 49.9,5.656c2.937,11.119 -0.26,23.688 -0.604,26.723c-2.343,20.696 22.489,32.593 18.06,54.805c-0.307,1.541 -1.725,8.653 -8.994,17.46c-1.99,2.412 -35.695,27.209 -65.129,-6.374c-0.149,-0.17 -0.085,-0.194 -0.116,-0.599c-0.12,-1.572 -0.633,-2.122 -0.666,-2.236c-0.172,-0.592 -0.572,-1.164 -0.509,-1.777c0.002,-0.017 0.861,-1.623 0.87,-1.626c0.595,-0.18 1.167,-0.601 1.785,-0.538c1.201,0.123 1.008,0.538 2.005,1.215c0.605,0.411 1.445,0.56 1.578,0.583c0.149,0.027 0.321,-0.024 0.452,0.054c0.473,0.281 10.523,13.662 26.823,14.852c14.033,1.024 25.121,-6.605 27.441,-8.436Z"/><path d="M74.308,207.43c-6.685,-1.644 -37.397,-1.54 -38.918,10.868c-1.067,8.708 11.35,20.874 12.631,22.448c13.926,17.115 -17.415,44.386 -1.999,66.132c2.638,3.721 7.882,8.947 14.29,10.736c6.593,1.841 13.299,0.552 22.468,-4.9c0.921,-0.547 6.769,-4.024 10.601,-8.179c0.908,-0.984 0.83,-1.264 2.17,-1.325c0.017,-0.001 1.74,0.623 1.744,0.631c0.26,0.554 0.746,1.053 0.774,1.665c0.055,1.203 -0.128,1.195 -0.94,2.081c-3.919,4.28 -5.677,5.898 -6.201,6.38c-2.928,2.695 -9.275,8.543 -19.432,10.621c-17.141,3.507 -29.071,-9.452 -33.169,-17.07c-13.076,-24.311 14.633,-51.181 4.06,-62.915c-3.285,-3.646 -20.769,-21.445 -10.603,-34.263c9.853,-12.421 40.016,-10.541 44.676,-8.835c7.35,2.691 14.109,15.804 18.056,23.504c-0.001,-0.001 -0.001,-0.001 -0.001,0c0.08,0.61 0.391,1.234 0.237,1.83c-0.004,0.016 -1.096,1.474 -1.105,1.475c-2.003,0.283 -2.453,0.714 -3.416,-1.066c-0.011,-0.021 -2.953,-5.804 -7.083,-11.362c-0.369,-0.497 -2.704,-3.64 -5.079,-5.828c-2.198,-2.024 -3.215,-2.399 -3.761,-2.628Z"/><path d="M437.183,300.445c0.727,-0.657 0.777,-0.671 1.755,-0.621c1.181,0.06 1.168,0.218 1.957,1.102c11.519,12.91 12.266,22.721 11.951,46.256c-0.452,33.784 -16.139,50.38 -33.078,66.34c-1.135,1.069 -12.959,12.079 -14.59,13.535c-88.324,78.81 -269.938,43.085 -315.262,-47.898c-14.292,-28.69 -10.889,-53.806 -8.342,-66.385c0.199,-0.978 0.917,-1.451 1.04,-1.533c0.014,-0.009 1.816,-0.354 1.823,-0.349c0.507,0.343 1.18,0.525 1.516,1.036c0.337,0.512 0.308,1.193 0.355,1.804c0.043,0.556 -3.783,14.793 -1.104,33.177c11.153,76.518 117.854,125.085 213.29,116.153c68.236,-6.387 99.932,-38.592 107.042,-45.194c23.833,-22.13 39.81,-35.108 41.077,-70.597c0.735,-20.577 1.66,-30.763 -9.351,-43.104c-0.777,-0.871 -0.934,-0.873 -0.874,-2.041c0.05,-0.977 0.069,-1.024 0.795,-1.681Z"/><path d="M96.685,462.808c-10.9,0.374 -40.153,15.504 -56.678,-5.977c-6.055,-7.871 -9.635,-20.368 -9.816,-30.831c-0.63,-36.576 35.614,-55.929 18.957,-107.641c-0.411,-1.276 -0.696,-1.345 -0.094,-2.545c0.008,-0.015 1.391,-1.21 1.4,-1.209c0.609,0.043 1.28,-0.135 1.826,0.139c1.133,0.568 0.997,0.756 1.394,1.958c17.908,54.208 -17.799,75.648 -17.052,109.172c0.203,9.142 3.441,21.193 9.477,28.143c14.153,16.294 39.77,2.007 51.115,2.321c1.575,0.044 2.372,0.926 7.443,2.452c18.65,5.611 23.398,-2.827 24.287,-4.225c0.093,-0.146 2.219,-3.625 2.83,-6.522c1.354,-6.427 -4.11,-9.174 -7.314,-26.347c-0.023,-0.124 -0.285,-1.53 -0.281,-1.548c0.136,-0.603 0.058,-1.303 0.415,-1.808c0.009,-0.014 1.575,-1.002 1.584,-1c0.603,0.136 1.301,0.059 1.806,0.415c1.003,0.708 0.87,0.856 1.086,2.063c2.307,12.874 7.909,18.372 8.823,24.778c0.109,0.769 1.041,5.279 -3.366,12.845c-1.995,3.424 -5.96,7.974 -13.923,9.28c-9.957,1.634 -20.866,-2.683 -23.919,-3.913Z"/><path d="M482.445,294.814c1.506,1.697 -0.102,3.33 -0.301,3.532c-3.28,3.328 -1.951,16.452 -1.707,19.986c2.352,34.139 18.675,96.599 19.358,112.387c1.575,36.417 -27.552,55.146 -66.095,37.732c-13.227,-5.977 -14.991,-12.446 -12.768,-22.227c2.367,-10.416 8.08,-22.808 2.216,-43.923c-0.26,-0.937 -0.252,-0.987 0.222,-1.835c0.008,-0.014 1.45,-1.15 1.459,-1.149c0.609,0.071 1.292,-0.077 1.827,0.222c1.066,0.597 0.956,0.754 1.281,1.928c8.863,31.989 -7.798,47.202 -1.053,56.121c0.397,0.525 2.581,4.06 14.813,8.322c32.058,11.17 53.387,-5.049 51.774,-34.885c-0.805,-14.897 -17.619,-78.102 -19.26,-113.398c-0.176,-3.79 0.12,-7.792 0.17,-8.468c0.319,-4.316 1.13,-11.233 4.535,-14.42c0.768,-0.72 0.809,-0.774 1.858,-0.719c0.148,0.008 1.013,0.053 1.671,0.794Z"/><path d="M48.594,200.376c0.599,0.1 1.275,0.053 1.773,0.399c0.013,0.009 1.01,1.561 1.008,1.57c-0.132,0.603 -0.048,1.301 -0.4,1.808c-0.957,1.377 -3.627,1.23 -3.958,1.212c-1.628,-0.089 -4.114,-1.075 -3.466,-4.766c0.6,-3.413 2.26,-5.88 -0.778,-11.949c-5.087,-10.16 -18.636,-23.906 -13.238,-46.032c4.569,-18.732 7.038,-34.444 3.584,-47.011c-2.493,-9.066 -6.47,-13.233 -7.714,-25.852c-2.536,-25.718 5.253,-42.43 31.768,-40.85c25.401,1.513 61.929,19.339 82.56,18.779c19.232,-0.521 28.897,-30.97 116.832,-23.692c37.256,3.084 72.963,11.668 77.968,12.547c39.166,6.872 86.234,-21.009 110.592,5.425c8.086,8.775 4.598,18.748 10.239,24.618c5.025,5.229 14.639,6.31 18.819,7.588c16.647,5.088 12.12,18.711 8.98,29.157c-3.74,12.438 -7.64,25.298 1.184,38.105c14.471,21.003 14.441,32.796 10.363,49.628c-3.741,15.442 -9.461,31.943 -6.601,63.864c0.087,0.97 0.071,1.017 -0.551,1.766c-0.011,0.013 -1.637,0.869 -1.645,0.866c-0.587,-0.181 -1.285,-0.159 -1.757,-0.551c-0.472,-0.392 -0.642,-1.054 -0.865,-1.626c-0.086,-0.223 -0.402,-4.911 -0.43,-5.339c-3.591,-53.362 17.38,-64.777 4.874,-92.009c-3.735,-8.134 -8.019,-13.008 -10.234,-17.072c-11.975,-21.968 5.613,-44.711 2.174,-55.307c-1.69,-5.206 -9.393,-5.93 -13.916,-7.077c-24.59,-6.239 -17.834,-20.295 -23.597,-29.73c-0.444,-0.726 -4.608,-7.401 -15.075,-10.31c-24.497,-6.807 -62.514,11.561 -96.712,4.162c-54.005,-11.683 -109.901,-19.047 -148.003,-6.249c-22.232,7.468 -28.986,18.174 -43.801,18.027c-27.924,-0.278 -75.54,-26.554 -96.4,-16.931c-4.126,1.903 -12.94,7.357 -10.175,32.824c2.203,20.293 16.875,21.557 3.526,72.17c-1.721,6.523 -3.644,15.204 2.898,28.326c5.245,10.52 11.892,16.945 10.931,25.711c-0.169,1.54 -0.507,2.803 -0.757,3.801Z"/></g></svg>