<?xml version="1.0" encoding="UTF-8" standalone="no"?><!DOCTYPE svg PUBLIC "-//W3C//DTD SVG 1.1//EN" "http://www.w3.org/Graphics/SVG/1.1/DTD/svg11.dtd"><svg width="100%" height="100%" viewBox="0 0 512 512" version="1.1" xmlns="http://www.w3.org/2000/svg" xmlns:xlink="http://www.w3.org/1999/xlink" xml:space="preserve" xmlns:serif="http://www.serif.com/" style="fill-rule:evenodd;clip-rule:evenodd;stroke-linejoin:round;stroke-miterlimit:2;"><g id="head2"><path d="M104.252,362.156c-0,0 28.547,37.469 41.632,45.795c13.084,8.327 82.075,52.338 87.427,59.475c5.353,7.137 23.195,23.195 41.632,18.437c18.438,-4.758 38.659,-27.358 49.364,-32.116c10.706,-4.758 79.101,-56.501 82.67,-74.938c3.568,-18.437 18.437,-67.801 18.437,-67.801l-5.948,-207.566l-294.993,-4.758l-46.985,170.097l26.764,93.375Z" style="fill:#f1d7d1;"/><path d="M349.418,113.412c-11.907,32.559 -20.029,58.995 -42.96,39.296c-34.471,-29.613 -37.441,-31.184 -81.928,-20.599c-47.291,11.251 -81.299,-20.755 -92.258,-6.972c-60.121,75.611 -9.893,316.708 -31.457,300.213c-18.099,-13.846 -22.214,-39.047 -27.935,-16.796c-5.044,19.614 -0.309,27.156 -12.677,24.93c-0.035,-0.007 -63.107,-74.783 -21.128,-231.128c4.974,-18.522 35.184,-131.035 159.632,-178.839c33.65,-12.926 106.474,25.561 176.064,30.211c14.13,0.944 47.978,19.23 60.801,35.916c70.565,91.826 20.812,358.028 -4.46,333.487c-4.625,-4.49 -2.337,-25.853 -2.097,-28.094c-46.89,59.299 -21.946,-28.331 -16.918,-52.716c17.065,-82.761 -15.365,-173.471 -20.45,-187.693c-31.466,-9.119 -37.086,-8.685 -41.055,-41.428" style="fill:#4657a3;"/><path d="M77.913,402.679c-1.244,1.84 -3.35,8.116 -4.856,19.958c-1.017,7.989 -1.261,15.34 -12.131,13.744c-2.072,-0.305 -2.234,-0.298 -3.789,-2.342c-4.046,-5.323 -61.187,-80.589 -21.006,-231.487c4.489,-16.858 34.195,-132.329 160.826,-181.393c8.092,-3.136 20.067,-5.488 49.233,1.021c36.914,8.239 83.059,25.48 127.967,28.641c0.401,0.028 8.469,-0.169 26.163,8.822c6.078,3.088 26.996,14.354 37.952,28.807c60.367,79.637 33.155,283.715 8.147,328.713c-1.926,3.467 -7.236,12.671 -14.382,10.023c-3.167,-1.174 -4.491,-4.025 -4.711,-4.497c-2.033,-4.374 -2.206,-12.21 -1.94,-18.62c-7.947,9.175 -16.627,17.012 -22.818,13.176c-7.371,-4.568 -5.336,-23.182 2.241,-56.597c3.274,-14.437 7.209,-28.511 8.629,-52.685c2.377,-40.463 -4.768,-77.834 -6.035,-84.663c-6.949,-37.454 -17.241,-64.844 -17.308,-65.317c-0.078,-0.556 0.058,-1.128 -0.02,-1.683c-0.661,-0.114 -1.351,0.085 -2.011,-0.029c-0.288,-0.05 -7.146,-2.068 -7.766,-2.251c-20.847,-6.135 -27.429,-9.898 -31.097,-32.963c-0.652,1.777 -1.206,3.286 -1.321,3.596c-7.721,21.006 -15.45,40.059 -30.46,36.893c-6.738,-1.421 -12.231,-6.767 -17.176,-10.982c-27.878,-23.766 -33.003,-25.796 -68.233,-17.71c-7.911,1.816 -18.809,5.111 -35.722,3.872c-31.531,-2.309 -54.857,-18.782 -61.987,-10.172c-3.771,4.554 -7.077,10.504 -7.612,11.467c-42.006,75.597 -11.443,256.092 -18.582,284.883c-0.007,0.029 -1.149,6.383 -5.846,5.914c-1.155,-0.116 -2.264,-0.405 -6.089,-3.831c-9.5,-8.509 -15.125,-19.863 -18.26,-22.308Zm271.661,-291.499c0.377,-0.212 0.729,-0.408 0.733,-0.407c0.598,0.166 1.303,0.123 1.791,0.506c1.075,0.842 0.844,1.028 1.013,2.382c3.066,24.458 6.937,28.633 22.626,33.659c5.941,1.903 16.38,4.681 17.006,4.974c0.949,0.445 1.278,1.319 1.334,1.467c2.181,5.794 4.911,14.33 5.312,15.585c4.905,15.339 21.204,68.694 20.712,124.227c-0.291,32.724 -5.698,52.599 -8.506,64.694c-2.604,11.216 -10.492,44.675 -6.547,52.987c0.455,0.959 0.82,1.286 2.27,0.773c6.714,-2.375 18.836,-18.184 19.382,-18.828c1.905,-2.248 5.457,-0.863 5.255,2.147c-0.034,0.517 -1.483,12.646 -0.328,20.888c0.576,4.109 1.54,4.844 1.886,5.108c0.528,0.403 1.512,1.275 4.218,-1.735c12.112,-13.47 27.844,-78.161 30.748,-152.021c2.709,-68.906 -6.126,-138.399 -35.181,-176.19c-12.525,-16.291 -45.626,-33.829 -58.431,-34.794c-16.525,-1.245 -35.026,-3.502 -73.587,-13.872c-42.314,-11.379 -80.645,-24.569 -101.565,-16.569c-87.459,33.444 -133.154,102.148 -152.841,160.021c-5.253,15.443 -13.604,46.778 -17.33,80.73c-11.387,103.777 26.95,157.298 32.142,164.027c2.076,0.296 3.673,0.337 4.261,-0.566c1.621,-2.488 1.488,-13.409 4.992,-24.999c0.797,-2.637 2.793,-9.224 7.683,-8.272c5.615,1.095 9.703,12.989 20.056,22.876c1.214,1.159 2.825,2.548 3.727,3.201c2.863,-6.018 1.024,-36.043 -0.326,-60.064c-4.154,-73.937 -10.851,-190.407 28.265,-239.521c7.763,-9.747 23.434,-1.127 44.406,4.411c15.59,4.116 31.558,5.908 49.221,1.735c38.016,-8.981 46.645,-9.615 70.501,9.704c11.714,9.486 15.086,13.469 20.302,16.076c10.426,5.211 17.055,-2.966 25.201,-23.582c2.887,-7.305 7.131,-19.299 7.187,-19.36c0.414,-0.449 0.69,-1.087 1.243,-1.344c0.009,-0.004 0.646,-0.033 1.169,-0.054Z"/><path d="M309.838,456.106c0.972,0.319 1.01,0.357 1.47,1.272c0.577,1.146 0.374,1.216 -0.022,2.435c-1.258,3.875 -3.324,10.494 -10.107,17.085c-19.919,19.357 -55.331,11.681 -67.454,-5.395c-0.585,-0.824 -3.245,-4.53 -4.421,-9.584c-0.465,-1.996 0.057,-2.031 1.737,-3.208c0.008,-0.005 1.802,0.31 1.816,0.319c1.166,0.742 0.894,0.98 1.266,2.309c0.349,1.247 1.935,6.913 9.973,12.743c15.486,11.231 44.1,13.186 57.556,-6.884c0.559,-0.833 2.862,-4.035 4.646,-8.567c0.29,-0.736 0.319,-0.903 0.332,-0.919c1.172,-1.347 1.134,-1.39 1.272,-1.459c0.912,-0.46 0.965,-0.466 1.936,-0.147Z"/><path d="M101.137,352.515c0.89,-0.319 0.936,-0.263 1.786,0.147c1.349,0.65 1.098,0.936 1.854,2.227c0.401,0.684 0.498,0.628 0.799,1.364c18.282,44.712 96.68,83.16 122.513,104.106c2.401,1.948 5.215,4.432 7.109,6.909c1.251,1.637 0.763,1.886 -0.297,3.65c-0.005,0.008 -1.787,0.453 -1.804,0.45c-1.35,-0.201 -1.212,-0.511 -2.076,-1.565c-14.424,-17.61 -93.303,-52.745 -123.107,-97.134c-4.518,-6.729 -6.647,-11.733 -7.784,-14.581c-0.077,-0.195 -0.102,-0.705 -0.406,-2.032c-0.265,-1.16 -0.378,-1.209 0.122,-2.29c0.397,-0.859 0.398,-0.931 1.291,-1.251Z"/><path d="M405.336,378.194c0.824,0.585 0.848,0.632 1.016,1.628c0.224,1.327 -0.033,1.323 -0.807,2.42c-12.508,17.724 -24.031,34.245 -51.621,55.776c-22.608,17.642 -29.74,15.347 -47.497,32.535c-4.959,4.799 -4.748,5.327 -6.218,5.38c-0.017,0.001 -1.739,-0.644 -1.743,-0.653c-0.254,-0.556 -0.734,-1.062 -0.756,-1.673c-0.022,-0.613 0.357,-1.18 0.635,-1.727c0.102,-0.201 3.75,-4 4.08,-4.344c18.922,-19.71 23.378,-15.88 44.669,-31.426c0.99,-0.723 11.462,-8.374 21.902,-18.123c14.461,-13.505 22.84,-25.22 32.836,-39.198c0.59,-0.824 0.636,-0.849 1.633,-1.018c0.995,-0.169 1.048,-0.162 1.871,0.423Z"/></g></svg>